<?xml version="1.0" encoding="utf-8"?>
<!-- Generator: Adobe Illustrator 27.2.0, SVG Export Plug-In . SVG Version: 6.00 Build 0)  -->
<svg version="1.1" id="Layer_1" xmlns="http://www.w3.org/2000/svg" xmlns:xlink="http://www.w3.org/1999/xlink" x="0px" y="0px"
	 width="217px" height="45px" viewBox="0 0 217 45" style="enable-background:new 0 0 217 45;" xml:space="preserve">
<style type="text/css">
	.st0{fill:#FFFFFF;}
	.st1{fill:#D60713;}
</style>
<path class="st0" d="M166.9,18.6v1.2c0,0.7,0.5,1.2,1.2,1.2h4.7c0.7,0,1.2-0.5,1.2-1.2v-1.2c0-0.7-0.5-1.2-1.2-1.2h-4.7
	C167.4,17.4,166.9,17.9,166.9,18.6C166.9,18.6,166.9,18.6,166.9,18.6z M182.3,24.6h-14.2c-0.7,0-1.2,0.5-1.2,1.2v2.4
	c0,0.7,0.5,1.2,1.2,1.2h4.7c0.7,0,1.2-0.5,1.2-1.2V27h8.3v3.6c0,3.3-2.7,6-5.9,6h-11.8c-3.3,0-5.9-2.7-5.9-6V16.2c0-3.3,2.7-6,5.9-6
	h11.8c3.3,0,5.9,2.7,5.9,6V24.6L182.3,24.6L182.3,24.6z"/>
<path class="st0" d="M101.9,19.8c0-1.3-1.1-2.4-2.4-2.4H96c-1.3,0-2.4,1.1-2.4,2.4v6c0,1.3,1.1,2.4,2.4,2.4h3.5
	c1.3,0,2.4-1.1,2.4-2.4V19.8L101.9,19.8z M109,25.8c0,1.3,1.1,2.4,2.4,2.4h1.2v8.4h-10.6v-1.2c0,0-0.4,1.2-4.1,1.2h-5.3
	c-3.3,0-5.9-2.7-5.9-6V16.2c0-3.3,2.7-6,5.9-6h5.3c4.2,0,4.1,1.2,4.1,1.2v-1.2h7.1V25.8L109,25.8z"/>
<path class="st0" d="M64.1,10.8h-9.5v15c0,1.3-1.1,2.4-2.4,2.4h-3.5v8.4h29.5c3.3,0,5.9-2.7,5.9-6V6c0-3.3-2.7-6-5.9-6H51.1
	c-3.3,0-5.9,2.7-5.9,6v11.4h5.9v-6.6c0-1.3,1-2.4,2.4-2.4h17.7c1.3,0,2.4,1.1,2.4,2.4v15c0,1.3-1.1,2.4-2.4,2.4h-4.7
	c-1.3,0-2.4-1.1-2.4-2.4L64.1,10.8L64.1,10.8L64.1,10.8z"/>
<path class="st0" d="M116.1,17.4v-7.2h10.6v1.2c0,0,0.5-1.3,4.1-1.2c3.1,0.1,2.9,0,2.9,0c3.3,0,5.9,2.7,5.9,6v8.4h-7.1v-4.8
	c0-1.3-1.1-2.4-2.4-2.4h-1.2c-1.3,0-2.4,1.1-2.4,2.4v6c0,1.3,1.1,2.4,2.4,2.4h1.2v8.4h-14.2v-8.4h1.2c1.3,0,2.4-1.1,2.4-2.4v-6
	c0-1.3-1.1-2.4-2.4-2.4C117.3,17.4,116.1,17.4,116.1,17.4z"/>
<path class="st0" d="M152.1,25.8c0,1.3,1.1,2.4,2.4,2.4h1.2v8.4h-14.8v-8.4h0.6c1.3,0,2.4-1.1,2.4-2.4V9.6c0-1.3-1.1-2.4-2.4-2.4
	h-0.6V0h11.2V25.8L152.1,25.8z"/>
<path class="st0" d="M184.6,10.2h9.5V27c0,1.3,1,2.4,2.4,2.4h3.5c1.3,0,2.4-1.1,2.4-2.4v-7.2c0-1.3-1.1-2.4-2.4-2.4v-7.2h9.5V39
	c0,3.3-2.7,6-5.9,6h-10.6v-6.6h8.3c0.6,0,1.1-0.5,1.1-1.2v-1.8c0,0-0.8,1.2-4.1,1.2l0,0c-1.2,0-5.3,0-5.3,0c-3.3,0-5.9-2.7-5.9-6
	V19.8c0-1.3-1.1-2.4-2.4-2.4L184.6,10.2L184.6,10.2z"/>
<path class="st0" d="M0,7.6V3c0-1.1,1.6-3,3.9-3h31.5c2.4,0,7,3.5,7,7.6v19.8c0,5-5.1,9.2-9.9,9.2H12.1c-2.5,0-3.2,1.1-3.6,1.2
	c-0.2,0-0.2-0.4-0.1-0.9c0.6-2.3,3-5.6,6.3-6.3c3.2-0.7,4.3,0.2,7.5-2.6c1.3-1.1,2.4-3.4,2.5-6.9c0-4.1,0-7.2,0-10.4
	c0-2.4-2.1-6.6-8.1-6.6H5.2C3.9,4,3.2,4,3.2,5.2v2.3c0,0.2-0.1,0.3-0.3,0.3H0.3C0.1,7.9,0,7.8,0,7.6L0,7.6L0,7.6z"/>
<path class="st1" d="M6.1,5.3C5.2,5.3,5.6,6,5.9,6.6c0.3,0.6,0.7,2.2-0.7,3.7c-1.3,1.4-2.8,3.5-3.1,5.6c-0.3,2.6,0,4,0.3,4.6
	c0.2,0.3,0.4,0.5,0.6-0.3c0.4-1.1,0.5-2,1.9-4c1-1.4,2.9-3.5,5.7-4.7c2-0.8,2.6-0.8,3.4-1.3c2.6-1.5,0.7-4.8-1.1-4.8
	C11.2,5.3,7,5.3,6.1,5.3L6.1,5.3L6.1,5.3z"/>
<path class="st1" d="M16.2,5.3c-0.5,0-0.6,0.2-0.2,0.6c0.4,0.4,1.2,1.5,1,2.8s-0.8,2.1-3.7,3.4c-2.9,1.2-3.8,1.5-6.6,4.7
	c-1.6,1.7-3.5,5.2-3.7,9.2c-0.1,2.6,0.3,3.9,0.7,5.6c0,0,0.4,0.5,0.5-0.7c0.1-1.2,0.5-3.7,1.8-5.4c1.3-1.8,3.2-3.3,6.6-5
	c3.2-1.6,5.6-2.4,7-3.7c1.7-1.5,2.7-3.2,2.7-5.8c0-2.6-2.2-4.5-3.8-5.1C17.1,5.4,16.7,5.3,16.2,5.3L16.2,5.3L16.2,5.3z"/>
<path class="st1" d="M21.8,16.4c-0.5,0.9-1.1,1.6-3.7,3.1c-1.9,1-6.1,2.7-7.3,3.6c-1.1,0.9-3.9,2.6-5,7c-0.6,2.5-0.2,3.7,0,5.3
	c0.1,0.5,0.9,1,1.2,0.1c0.4-0.9,0.9-2.8,2.3-4.2c1.1-1,3.7-2.3,5.3-2.8c1.6-0.5,3.8-0.7,5-1.5c1.6-1.2,2.1-2,2.7-3.7
	c0.6-1.7,0.4-5.8,0.4-6.7s0-1.2-0.1-1.2C22.4,15.5,22.2,15.8,21.8,16.4L21.8,16.4L21.8,16.4z"/>
<path class="st0" d="M211.9,12.8c0-1.5,1.1-2.6,2.5-2.6c1.5,0,2.5,1.1,2.5,2.6s-1.1,2.6-2.5,2.6C213,15.4,211.9,14.3,211.9,12.8z
	 M212.5,12.8c0,1.2,0.8,2.1,2,2.1c1.2,0,2-0.9,2-2.1s-0.8-2.1-2-2.1C213.3,10.7,212.5,11.6,212.5,12.8z M215,13.1l0.7,1.1l-0.8,0
	l-0.6-1h-0.2v1h-0.6v-2.7h1.2c0.6,0,0.9,0.3,0.9,0.8C215.6,12.7,215.4,13,215,13.1L215,13.1z M214.1,12.1v0.6h0.5
	c0.2,0,0.3-0.1,0.3-0.3s-0.1-0.3-0.3-0.3H214.1z"/>
</svg>
